
<svg width="704px" height="54px" viewBox="0 0 704 54" version="1.1" xmlns="http://www.w3.org/2000/svg" xmlns:xlink="http://www.w3.org/1999/xlink">
    <g id="Page-1" stroke="none" stroke-width="1" fill="none" fill-rule="evenodd" stroke-linecap="square">
        <path d="M7,46.5 L28.4941397,18.7902977 C39.1236197,5.08704029 58.8492008,2.59525143 72.5524581,13.2247315 C74.1929769,14.4972655 75.7032461,15.9293636 77.0610921,17.5 L94.5611999,37.7425787 C98.1731561,41.9205707 104.488157,42.3794333 108.666149,38.767477 C109.034117,38.4493615 109.378384,38.1048224 109.696209,37.7366034 L127.195544,17.4625839 C139.094422,3.67702661 159.91577,2.14757084 173.701328,14.0464488 C174.934521,15.1108685 176.087138,16.2652134 177.149709,17.5 L194.544476,37.7140114 C198.146865,41.9002552 204.4608,42.3735628 208.647044,38.7711737 C209.018951,38.4511361 209.3668,38.1041609 209.687773,37.7330598 L227.187718,17.5 C239.18424,3.6298803 260.153295,2.11102892 274.023415,14.1075505 C275.224162,15.1460986 276.348881,16.269424 277.388917,17.4688825 L294.931189,37.7001345 C298.549274,41.8728202 304.864942,42.3224129 309.037627,38.7043279 C309.420356,38.3724686 309.777315,38.0120073 310.105422,37.6260568 L327.21512,17.5 C338.829534,3.83802029 359.3201,2.17814027 372.98208,13.7925542 C374.288243,14.9029582 375.504408,16.115069 376.619167,17.4175169 L393.996847,37.7210247 C397.588051,41.9168682 403.900699,42.4070258 408.096543,38.8158224 C408.461553,38.503412 408.803574,38.1651025 409.119948,37.8035226 L427.278961,17.0498124 C439.130344,3.50501445 459.718016,2.13223036 473.262814,13.9836133 C474.500896,15.0669061 475.65517,16.2423955 476.715736,17.5 L493.673662,37.6084693 C497.234131,41.8304239 503.543033,42.3666636 507.764987,38.806194 C508.148765,38.4825457 508.507625,38.1304568 508.838525,37.7529138 L526.826993,17.2288146 C538.882621,3.47384069 559.806248,2.09624858 573.561222,14.1518766 C574.743288,15.1879058 575.850098,16.3067753 576.873256,17.5 L594.186361,37.6908399 C597.781381,41.8834138 604.094473,42.367827 608.287047,38.772807 C608.662331,38.451011 609.013236,38.1018291 609.336876,37.7281338 L626.8555,17.5 C638.232725,4.36312231 658.105331,2.93664168 671.242209,14.3138663 C672.804623,15.6669993 674.229917,17.1707806 675.497434,18.8034186 L697,46.5" id="Line" stroke="#1976D2" stroke-width="10"></path>
    </g>
</svg>
